<svg xmlns="http://www.w3.org/2000/svg" data-name="Layer 1" width="767" height="496.50003" viewBox="0 0 767 496.50003" xmlns:xlink="http://www.w3.org/1999/xlink"><path d="M293.7323,569.40042c.93282,41.24416,5.526,83.55816,15.28016,125.53433.21289.9431.436,1.87211.659,2.8153h57.02431c-.06084-.84464-.12173-1.78774-.18257-2.8153C362.71093,634.25084,340.78945,264.91137,367,201.75,364.70843,206.87385,289.31152,376.58029,293.7323,569.40042Z" transform="translate(-216.5 -201.74998)" fill="#e6e6e6"/><path d="M298.01112,694.93475c.47659.9431.97341,1.8862,1.48038,2.8153h42.77833c-.32447-.80237-.69962-1.74547-1.13561-2.8153-7.06723-17.70828-27.98485-70.65-47.40192-125.53433-20.867-58.98062-40.01028-120.19936-38.39808-142.35578C254.8374,432.04178,240.39884,584.37776,298.01112,694.93475Z" transform="translate(-216.5 -201.74998)" fill="#e6e6e6"/><path d="M815.1,340.91l-3.59,27.63-2.17,16.77-1.62006,12.45-47.58,48.38-13.94,8.97a10.81419,10.81419,0,1,1-9.4-19.31l15.29-5.31,32.22-41.85,1.47-8.18006,19.22-64.71c1.96-3.28,3.28,8.68,6,6,.81.9,6.28-9.96,7-9C824.72,321.68,816.57,329.57006,815.1,340.91Z" transform="translate(-216.5 -201.74998)" fill="#a0616a"/><polygon points="606.888 475.725 592.056 475.725 592.056 331.453 625.765 330.779 606.888 475.725" fill="#a0616a"/><polygon points="678.35 475.725 693.182 475.725 693.182 331.453 659.473 330.779 678.35 475.725" fill="#a0616a"/><circle cx="625.09067" cy="61.11125" r="24.94422" fill="#a0616a"/><path d="M884.06327,298.59215l-4.045,24.27-47.19178,2.69668V296.3228c9.7361-4.18575,7.54543-10.3006,0-17.28153l30.33757-8.76419c1.135,10.046,2.92252,19.38959,11.28393,21.6571a16.758,16.758,0,0,1,9.20645,6.10406Z" transform="translate(-216.5 -201.74998)" fill="#a0616a"/><path d="M915.74917,536.57353,866.872,538.259l-6.06752-37.75342-8.4271,36.068-49.88845,1.34834,4.045-66.06849,93.70938-22.24755A216.61608,216.61608,0,0,1,915.74917,536.57353Z" transform="translate(-216.5 -201.74998)" fill="#2f2e41"/><path d="M816.4285,697.54151l-31.55781-.28921a10.25781,10.25781,0,0,1-12.71935-9.95808v0a10.25779,10.25779,0,0,1,5.81133-9.244l7.19865-3.46265,23.3951-15.98958,16.85421,4.71917,3.228,14.5262A16.585,16.585,0,0,1,816.4285,697.54151Z" transform="translate(-216.5 -201.74998)" fill="#2f2e41"/><path d="M901.3737,697.36265l-31.55781-.28921a10.2578,10.2578,0,0,1-12.71935-9.95808v0a10.2578,10.2578,0,0,1,5.81132-9.244l7.19866-3.46265,23.3951-15.98958,16.85421,4.71918,3.228,14.52619A16.585,16.585,0,0,1,901.3737,697.36265Z" transform="translate(-216.5 -201.74998)" fill="#2f2e41"/><path d="M830.80506,253.63288c-9.06186,6.29349-20.923-2.42134-17.67168-12.96431,2.68985-8.72229,9.47156-17.24153,25.76061-16.9091,33.03425.67417,37.30211,33.74378,26.404,46.87238,0,0-1.45976-20.57982-4.8306-17.209s-8.76419,1.34833-8.76419,1.34833,2.69667-12.80919-10.11252-7.41585A58.58548,58.58548,0,0,0,830.80506,253.63288Z" transform="translate(-216.5 -201.74998)" fill="#2f2e41"/><path d="M902.94,454.99917c-27.01459,21.90249-58.96191,29.81479-97.08023,20.22505,9.68485-48.79192,7.821-100.66287,0-154.12206a18.76247,18.76247,0,0,1,10.53656-16.86311l17.10434-8.34358c15.182,21.56383,29.15387,16.06329,42.4726-4.045l18.87228,6.9045a13.29577,13.29577,0,0,1,8.72747,12.545C900.999,365.54229,899.41553,417.12607,902.94,454.99917Z" transform="translate(-216.5 -201.74998)" fill="#2c56dd"/><path d="M820.69,393.65l-8.41-1.73-2.94-.61-23.56-4.85L774.85,384.21l18.49-53.96A45.80865,45.80865,0,0,1,804.48,312.53a45.7501,45.7501,0,0,1,13.51-9.22v.15Z" transform="translate(-216.5 -201.74998)" fill="#2c56dd"/><path d="M909.00749,448.25749l-7.87183,22.37256a11.41753,11.41753,0,0,0,9.89461,15.17345h0a11.41753,11.41753,0,0,0,12.2652-10.58463l1.892-26.96138L923.165,374.099l-20.89921,2.0225Z" transform="translate(-216.5 -201.74998)" fill="#a0616a"/><path d="M935.97422,372.75065l-44.4951,12.8092-.67417-88.316h0a34.02667,34.02667,0,0,1,30.86349,24.74446Z" transform="translate(-216.5 -201.74998)" fill="#2c56dd"/><path d="M372.912,339.0762a4.50492,4.50492,0,0,0-4.5,4.5v94a4.50491,4.50491,0,0,0,4.5,4.5h365a4.50492,4.50492,0,0,0,4.5-4.5v-94a4.50493,4.50493,0,0,0-4.5-4.5Z" transform="translate(-216.5 -201.74998)" fill="#2c56dd"/><path d="M737.912,698.0762h-365a7.50819,7.50819,0,0,1-7.5-7.5v-346a7.5082,7.5082,0,0,1,7.5-7.5h365a7.5082,7.5082,0,0,1,7.5,7.5v346A7.5082,7.5082,0,0,1,737.912,698.0762Zm-365-358a4.50492,4.50492,0,0,0-4.5,4.5v346a4.50491,4.50491,0,0,0,4.5,4.5h365a4.50492,4.50492,0,0,0,4.5-4.5v-346a4.50493,4.50493,0,0,0-4.5-4.5Z" transform="translate(-216.5 -201.74998)" fill="#3f3d56"/><path id="a412c548-e719-4eea-a05b-cd0e7020a11d-465" data-name="Path 40" d="M490.27153,480.77243a5.94683,5.94683,0,0,0,0,11.89205H694.35726a5.94683,5.94683,0,0,0,.19525-11.89205q-.09763-.00165-.19525,0Z" transform="translate(-216.5 -201.74998)" fill="#e6e6e6"/><path id="b78b0a84-c378-4508-9336-e77aabaafae0-466" data-name="Path 40" d="M490.27153,511.77243a5.94683,5.94683,0,0,0,0,11.89205H694.35726a5.94683,5.94683,0,0,0,.19525-11.89205q-.09763-.00165-.19525,0Z" transform="translate(-216.5 -201.74998)" fill="#e6e6e6"/><path id="e32b0e90-8114-4582-9747-2684e16f8e14-467" data-name="Path 40" d="M490.27153,542.77243a5.94683,5.94683,0,0,0,0,11.89205H694.35726a5.94683,5.94683,0,0,0,.19525-11.89205q-.09763-.00165-.19525,0Z" transform="translate(-216.5 -201.74998)" fill="#e6e6e6"/><path id="b06bb5c2-a5f4-47ff-92f8-77ef735fdd34-468" data-name="Path 40" d="M490.27153,573.77243a5.94683,5.94683,0,0,0,0,11.89205H694.35726a5.94683,5.94683,0,0,0,.19525-11.89205q-.09763-.00165-.19525,0Z" transform="translate(-216.5 -201.74998)" fill="#e6e6e6"/><path id="b8811759-8962-48e4-84dc-33129b489fa6-469" data-name="Path 40" d="M490.27153,604.77243a5.94683,5.94683,0,0,0,0,11.89205H694.35726a5.94683,5.94683,0,0,0,.19525-11.89205q-.09763-.00165-.19525,0Z" transform="translate(-216.5 -201.74998)" fill="#e6e6e6"/><path id="b77aa8cf-94af-4633-82e9-cca59aedf566-470" data-name="Path 40" d="M490.27153,635.77243a5.94683,5.94683,0,0,0,0,11.89205H694.35726a5.94683,5.94683,0,0,0,.19525-11.89205q-.09763-.00165-.19525,0Z" transform="translate(-216.5 -201.74998)" fill="#e6e6e6"/><path d="M444.32817,390.57162a24,24,0,1,1-24-24A23.898,23.898,0,0,1,444.32817,390.57162Z" transform="translate(-216.5 -201.74998)" fill="#fff"/><path id="ebe986c1-6388-4a4d-87c0-ea526f0f496e-471" data-name="Path 40" d="M463.36921,371.63018a5.94683,5.94683,0,0,0,0,11.892H612.45493a5.94683,5.94683,0,0,0,.19526-11.892q-.09763-.00165-.19526,0Z" transform="translate(-216.5 -201.74998)" fill="#fff"/><path id="a7d58542-4d48-481b-9cd8-4bec86616530-472" data-name="Path 40" d="M463.36921,397.63018a5.94683,5.94683,0,0,0,0,11.892H708.45493a5.94683,5.94683,0,0,0,.19526-11.892q-.09763-.00165-.19526,0Z" transform="translate(-216.5 -201.74998)" fill="#fff"/><path d="M452,497.75005a11,11,0,1,1,11-11A11.01245,11.01245,0,0,1,452,497.75005Zm0-20a9,9,0,1,0,9,9A9.01016,9.01016,0,0,0,452,477.75005Z" transform="translate(-216.5 -201.74998)" fill="#e6e6e6"/><path d="M452,528.75005a11,11,0,1,1,11-11A11.01245,11.01245,0,0,1,452,528.75005Zm0-20a9,9,0,1,0,9,9A9.01016,9.01016,0,0,0,452,508.75005Z" transform="translate(-216.5 -201.74998)" fill="#e6e6e6"/><path d="M452,559.7188a11,11,0,1,1,11-11A11.01245,11.01245,0,0,1,452,559.7188Zm0-20a9,9,0,1,0,9,9A9.01016,9.01016,0,0,0,452,539.7188Z" transform="translate(-216.5 -201.74998)" fill="#e6e6e6"/><path d="M452,590.7188a11,11,0,1,1,11-11A11.01245,11.01245,0,0,1,452,590.7188Zm0-20a9,9,0,1,0,9,9A9.01016,9.01016,0,0,0,452,570.7188Z" transform="translate(-216.5 -201.74998)" fill="#e6e6e6"/><path d="M452,621.7188a11,11,0,1,1,11-11A11.01245,11.01245,0,0,1,452,621.7188Zm0-20a9,9,0,1,0,9,9A9.01016,9.01016,0,0,0,452,601.7188Z" transform="translate(-216.5 -201.74998)" fill="#e6e6e6"/><path d="M452,652.7188a11,11,0,1,1,11-11A11.01245,11.01245,0,0,1,452,652.7188Zm0-20a9,9,0,1,0,9,9A9.01016,9.01016,0,0,0,452,632.7188Z" transform="translate(-216.5 -201.74998)" fill="#e6e6e6"/><circle cx="235.5" cy="285.00007" r="5" fill="#2c56dd"/><circle cx="235.5" cy="347.00007" r="5" fill="#2c56dd"/><circle cx="235.5" cy="378.00007" r="5" fill="#2c56dd"/><rect y="494.50003" width="767" height="2" fill="#2f2e41"/></svg>
