<svg width="136" height="88" viewBox="0 0 136 88" fill="none" xmlns="http://www.w3.org/2000/svg">
<rect width="136" height="88"/>
<path d="M39.4133 77C59.6133 77 72.0133 65 72.0133 45.2V40.6C72.0133 39.4955 71.1178 38.6 70.0133 38.6H42.9133C41.8087 38.6 40.9133 39.4955 40.9133 40.6V46.6C40.9133 47.7046 41.8087 48.6 42.9133 48.6H58.9133C58.5133 58.5 53.0133 66.6 39.6133 66.6C24.6133 66.6 17.5133 56.1 17.5133 40.8V40C17.5133 24.3 25.6133 13.9 39.6133 13.9C48.3534 13.9 54.5322 17.5213 56.5725 25.8428C56.805 26.7911 57.6282 27.5 58.6046 27.5H67.9787C69.1708 27.5 70.1034 26.4565 69.8921 25.2833C67.1031 9.79265 54.0344 3.40002 39.4133 3.40002C18.5133 3.40002 3.71326 18.6 3.71326 39.9V40.7C3.71326 61.8 16.5133 77 39.4133 77Z"  fill="white"/>
<path d="M103.252 67.6C94.0523 67.6 88.7523 60.9 88.7523 50.2V49.4C88.7523 38.6 94.2523 32.1 103.252 32.1C112.252 32.1 117.652 38.7 117.652 49.5V50.2C117.652 60.9 112.252 67.6 103.252 67.6ZM103.152 77C118.552 77 130.052 66.4 130.052 50.1V49.3C130.052 33.3 118.552 22.6 103.252 22.6C87.8523 22.6 76.3523 33.4 76.3523 49.6V50.4C76.3523 66.3 87.7523 77 103.152 77Z" fill="white"/>
</svg>
